<?xml version="1.0" encoding="utf-8"?>
<!-- Generator: Adobe Illustrator 16.0.0, SVG Export Plug-In . SVG Version: 6.00 Build 0)  -->
<!DOCTYPE svg PUBLIC "-//W3C//DTD SVG 1.1//EN" "http://www.w3.org/Graphics/SVG/1.1/DTD/svg11.dtd">
<svg version="1.1" id="Layer_1" xmlns="http://www.w3.org/2000/svg" xmlns:xlink="http://www.w3.org/1999/xlink" x="0px" y="0px"
	 width="180px" height="49px" viewBox="-0.052 0 180 49" enable-background="new -0.052 0 180 49" xml:space="preserve">
<g>
	<path fill="#FFFFFF" d="M14.879,12.744c0.003,1.445-0.202,2.884-0.61,4.271c-0.403,1.054-1.027,2.009-1.829,2.805
		c-0.831,0.76-1.836,1.305-2.927,1.585c-1.35,0.372-2.748,0.536-4.146,0.488H1.1c-0.267,0.017-0.528-0.071-0.73-0.244
		C0.106,21.447-0.034,21.125,0,20.797V5.186c-0.035-0.329,0.104-0.652,0.366-0.854C0.589,4.197,0.84,4.113,1.1,4.089h4.632
		c1.361-0.11,2.73,0.056,4.025,0.486c1.054,0.348,2.013,0.932,2.805,1.707c0.774,0.746,1.36,1.666,1.708,2.685
		C14.738,10.169,14.946,11.456,14.879,12.744z M11.098,12.866c-0.015-0.776-0.096-1.553-0.244-2.315
		c-0.146-0.727-0.483-1.398-0.976-1.951C9.416,8.059,8.83,7.64,8.171,7.379C7.331,6.994,6.409,6.827,5.487,6.89H3.659v12.2h1.949
		c0.868,0.016,1.732-0.108,2.563-0.366c0.683-0.218,1.279-0.646,1.707-1.22c0.513-0.538,0.853-1.219,0.976-1.951
		c0.154-0.888,0.236-1.784,0.246-2.686L11.098,12.866z M37.198,15.183v6.342c0,0.122,0,0.122-0.122,0.244
		c0,0.122-0.122,0.122-0.244,0.122c-0.201,0.053-0.404,0.093-0.61,0.122h-1.707c-0.244,0-0.366-0.122-0.61-0.122
		c-0.092-0.013-0.178-0.056-0.242-0.122c0-0.122-0.122-0.122-0.122-0.244v-6.339l-4.878-9.757c-0.101-0.294-0.224-0.579-0.366-0.854
		c0-0.244,0-0.366,0.122-0.486c0.122-0.122,0.244-0.122,0.608-0.122h2.2c0.212-0.032,0.428,0.011,0.61,0.122
		c0.122,0,0.244,0.12,0.366,0.242s0.122,0.244,0.242,0.366l1.951,4.392c0.225,0.437,0.425,0.885,0.604,1.343
		c0.244,0.487,0.366,0.976,0.608,1.463l0,0c0.122-0.488,0.366-0.978,0.488-1.463c0.107-0.505,0.271-0.996,0.488-1.464l1.951-4.392
		c0-0.122,0.122-0.244,0.122-0.364c0.101-0.109,0.226-0.193,0.364-0.244c0.202-0.054,0.407-0.095,0.613-0.122h2.2
		c0.205,0.027,0.409,0.068,0.609,0.122c0.121,0.122,0.121,0.244,0.121,0.486c-0.018,0.283-0.149,0.549-0.364,0.732L37.198,15.183z
		 M67.323,20.427v0.73c0,0.244,0,0.366-0.122,0.488c-0.015,0.093-0.057,0.179-0.122,0.244c-0.122,0-0.122,0.122-0.244,0.122h-8.293
		c-0.265-0.006-0.52-0.091-0.732-0.244c-0.263-0.201-0.4-0.525-0.366-0.854V4.454c0-0.122,0-0.122,0.122-0.242
		c0-0.122,0.122-0.122,0.244-0.122c0.201-0.054,0.404-0.095,0.61-0.122h1.707c0.244,0,0.366,0.122,0.608,0.122
		c0.094,0.013,0.18,0.056,0.244,0.122c0.122,0.12,0.122,0.12,0.122,0.242v14.392h5.61c0.122,0,0.122,0,0.244,0.122
		c0.122,0,0.122,0.122,0.122,0.244c0,0.12,0.122,0.242,0.122,0.486c0.099,0.23,0.141,0.481,0.121,0.732v-0.003H67.323z
		 M87.081,15.183v6.342c0,0.122,0,0.122-0.122,0.244c0,0.122-0.122,0.122-0.244,0.122c-0.201,0.053-0.404,0.093-0.61,0.122H84.4
		c-0.244,0-0.364-0.122-0.608-0.122c-0.093-0.013-0.18-0.056-0.244-0.122c0-0.122-0.122-0.122-0.122-0.244v-6.339l-4.88-9.757
		c-0.244-0.366-0.366-0.732-0.488-0.854c0-0.244,0-0.366,0.122-0.486c0.122-0.122,0.244-0.122,0.61-0.122h2.198
		c0.213-0.032,0.429,0.011,0.61,0.122c0.122,0,0.244,0.12,0.366,0.242s0.122,0.244,0.244,0.366l1.951,4.271
		c0.226,0.437,0.43,0.884,0.608,1.342c0.244,0.488,0.366,0.976,0.61,1.464l0,0c0.122-0.488,0.366-0.976,0.488-1.464
		c0.195-0.436,0.358-0.883,0.486-1.342L88.3,4.576c0-0.122,0.122-0.244,0.122-0.364c0.101-0.109,0.227-0.193,0.366-0.244
		c0.2-0.054,0.404-0.095,0.61-0.122h2.2c0.206,0.027,0.409,0.068,0.61,0.122c0.122,0.122,0.122,0.244,0.122,0.486
		c-0.02,0.283-0.15,0.549-0.366,0.732L87.081,15.183z M150.501,20.55v0.73c0.018,0.172-0.025,0.345-0.122,0.488
		c-0.013,0.093-0.056,0.178-0.122,0.244c-0.122,0-0.122,0.122-0.244,0.122h-9.025c-0.263-0.006-0.518-0.091-0.73-0.244
		c-0.263-0.202-0.401-0.525-0.366-0.854V5.186c-0.035-0.329,0.104-0.652,0.366-0.854c0.223-0.135,0.473-0.219,0.73-0.242h8.9
		c0.122,0,0.122,0,0.244,0.122c0.122,0,0.122,0.12,0.122,0.242s0.122,0.244,0.122,0.488v1.341c0.018,0.172-0.025,0.346-0.122,0.488
		c-0.013,0.093-0.056,0.178-0.122,0.244c-0.122,0-0.122,0.122-0.244,0.122h-6.464v4.39h5.366c0.122,0,0.122,0,0.244,0.122
		c0.12,0,0.12,0.122,0.12,0.244s0.122,0.244,0.122,0.488v1.22c0,0.122,0,0.366-0.122,0.366c0,0.122-0.12,0.122-0.12,0.244
		c-0.122,0-0.122,0.12-0.244,0.12h-5.366v5.122h6.464c0.122,0,0.122,0,0.244,0.122c0.122,0,0.122,0.122,0.122,0.244
		s0.122,0.244,0.122,0.488c0.004-0.245,0.124-0.001,0.124,0.243L150.501,20.55z M179.772,21.525v0.244
		c0,0.122-0.122,0.122-0.244,0.122c-0.199,0.053-0.403,0.093-0.608,0.122h-2.073c-0.244,0-0.366,0-0.488-0.122
		c-0.131-0.009-0.234-0.113-0.244-0.244c0-0.122-0.12-0.122-0.12-0.244l-1.588-4.023c-0.178-0.419-0.382-0.826-0.608-1.222
		c-0.174-0.305-0.378-0.591-0.61-0.854c-0.214-0.204-0.461-0.369-0.73-0.488c-0.313-0.108-0.646-0.149-0.978-0.122h-1.1v6.83
		c0,0.122,0,0.122-0.122,0.244c0,0.122-0.122,0.122-0.244,0.122c-0.201,0.053-0.404,0.093-0.61,0.122h-1.699
		c-0.244,0-0.366-0.122-0.61-0.122c-0.093-0.013-0.179-0.057-0.244-0.122c0-0.122-0.122-0.122-0.122-0.244V5.186
		c-0.035-0.329,0.104-0.652,0.366-0.854c0.223-0.135,0.473-0.218,0.731-0.242h5.854c0.29-0.029,0.583,0.013,0.854,0.122
		c0.667,0.09,1.32,0.254,1.95,0.486c1.106,0.455,1.984,1.334,2.439,2.439c0.25,0.619,0.374,1.282,0.366,1.951
		c-0.014,0.535-0.096,1.068-0.244,1.585c-0.12,0.504-0.373,0.968-0.732,1.342c-0.274,0.415-0.654,0.751-1.1,0.976l-1.464,0.732
		c0.271,0.119,0.518,0.284,0.73,0.488c0.244,0.242,0.488,0.364,0.61,0.73c0.244,0.244,0.366,0.61,0.608,0.854
		c0.215,0.342,0.379,0.712,0.488,1.1l1.464,3.537c0.103,0.237,0.184,0.48,0.244,0.73C179.802,21.261,179.757,21.393,179.772,21.525
		L179.772,21.525z M175.015,9.325c0.025-0.513-0.102-1.021-0.366-1.463c-0.321-0.445-0.802-0.751-1.342-0.854
		c-0.244,0-0.366-0.122-0.61-0.122h-2.561v5.122h1.829c0.457-0.012,0.91-0.095,1.342-0.244c0.358-0.088,0.691-0.254,0.978-0.488
		c0.27-0.229,0.479-0.523,0.608-0.854c0.102-0.354,0.143-0.724,0.123-1.092L175.015,9.325z"/>
	<path fill="#FFFFFF" d="M109.641,1.893c-0.369-1.279-1.705-2.018-2.982-1.647c-0.063,0.019-0.124,0.038-0.186,0.063l0,0
		c-1.319,0.354-2.104,1.71-1.75,3.029c0.013,0.049,0.027,0.096,0.043,0.144l5.732,18.78c0.369,1.277,1.704,2.017,2.982,1.646
		c0.063-0.019,0.126-0.039,0.188-0.063l0,0c1.318-0.354,2.103-1.711,1.749-3.03c-0.014-0.048-0.026-0.095-0.042-0.141L109.641,1.893
		z"/>
	<path fill="#FFFFFF" d="M108.059,25.186c-0.437-1.238-1.795-1.889-3.033-1.451c-0.089,0.031-0.176,0.067-0.26,0.109l0,0
		c-1.306,0.485-1.969,1.938-1.481,3.245c0.006,0.016,0.013,0.031,0.019,0.048l4.27,10.487c0.438,1.239,1.797,1.89,3.034,1.451
		c0.089-0.03,0.176-0.066,0.261-0.107l0,0c1.305-0.487,1.969-1.94,1.48-3.246c-0.006-0.017-0.012-0.031-0.018-0.047L108.059,25.186z
		"/>
	<path fill="#FFFFFF" d="M102.814,28.599c-0.586-1.231-2.046-1.771-3.293-1.22l0,0c-1.311,0.433-2.021,1.847-1.589,3.157
		c0.001,0.003,0.002,0.007,0.003,0.01l3.173,6.956c0.587,1.229,2.047,1.771,3.293,1.22l0,0c1.313-0.434,2.023-1.848,1.592-3.158
		c-0.002-0.006-0.006-0.012-0.008-0.018L102.814,28.599z"/>
	<path fill="#FFFFFF" d="M125.866,4.942c0.301-1.313-0.519-2.622-1.829-2.927l0,0c-1.278-0.43-2.67,0.212-3.171,1.464l-5,17.562
		c-0.303,1.313,0.517,2.623,1.827,2.929l0,0c1.278,0.43,2.67-0.213,3.173-1.464L125.866,4.942z"/>
	<path fill="#FFFFFF" d="M110.499,27.259c-0.122,1.464,0.486,2.561,2.2,2.561c1.712,0,3.413,0.122,6.586,0.122
		c3.171,0,2.683,2.317,2.198,4.147c-0.888,2.725-1.987,5.375-3.293,7.927c-0.514,1.378-1.821,2.298-3.293,2.315
		c-0.854-0.242-8.898-0.242-10.365-0.242c-1.596-0.121-2.082,1.098-2.082,2.438c0,1.22,0.608,2.2,1.949,2.2
		c1.343,0,8.537,0.122,11.223,0.122c2.805-0.122,4.146-0.854,5.854-3.171c1.707-2.317,3.415-6.708,4.393-9.879
		c0.976-3.171,1.342-6.586-1.466-8.659c-2.806-2.073-8.171-1.707-10.487-1.829C113.792,25.185,110.621,24.941,110.499,27.259z"/>
</g>
</svg>
